<?xml version="1.0" standalone="no"?>
<!DOCTYPE svg PUBLIC "-//W3C//DTD SVG 20010904//EN"
 "http://www.w3.org/TR/2001/REC-SVG-20010904/DTD/svg10.dtd">
<svg version="1.0" xmlns="http://www.w3.org/2000/svg"
 width="200.000000pt" height="200.000000pt" viewBox="0 0 200.000000 200.000000"
 preserveAspectRatio="xMidYMid meet">
<metadata>
Created by potrace 1.14, written by Peter Selinger 2001-2017
</metadata>
<g transform="translate(0.000000,200.000000) scale(0.100000,-0.100000)"
fill="#000000" stroke="none">
<path d="M1015 1864 c-16 -9 -39 -25 -50 -35 -25 -23 -93 -51 -105 -44 -4 3
-37 6 -72 6 -80 1 -198 -36 -299 -93 -99 -56 -123 -86 -124 -157 -1 -37 -6
-56 -15 -59 -8 -3 -32 -22 -54 -42 -36 -34 -41 -43 -43 -91 -4 -107 -15 -185
-30 -224 -9 -22 -29 -80 -46 -130 l-31 -89 18 -111 c25 -155 31 -173 68 -209
37 -36 70 -97 89 -166 19 -69 33 -80 98 -80 31 0 71 -4 90 -10 33 -9 139 -83
155 -108 25 -40 118 -56 336 -55 145 0 176 3 257 25 105 29 139 48 155 86 5
15 14 35 19 44 5 10 9 24 9 32 0 18 92 138 183 238 62 68 78 80 133 98 34 12
65 27 67 34 3 8 5 45 4 84 -2 60 -6 74 -27 97 -36 39 -68 53 -141 60 -35 4
-98 15 -139 26 -74 18 -108 24 -205 35 -40 5 -54 3 -64 -10 -7 -9 -21 -16 -29
-16 -27 0 -152 -42 -152 -51 0 -5 -6 -9 -13 -9 -7 0 -28 -14 -46 -31 -29 -26
-33 -35 -28 -65 3 -20 11 -42 17 -49 17 -20 98 -45 157 -47 28 -1 50 -5 49 -8
-2 -3 0 -32 4 -64 l6 -59 -47 -48 c-27 -26 -69 -57 -95 -69 -40 -20 -55 -22
-112 -16 -37 4 -99 8 -138 9 -67 2 -72 4 -121 46 -52 44 -68 65 -64 89 1 7
-18 41 -43 74 -25 34 -46 67 -46 74 0 6 -17 47 -37 90 -20 44 -37 88 -37 99 1
107 43 227 105 306 33 43 35 51 13 110 l-15 44 54 51 c65 61 76 63 330 70
l169 5 54 -31 c30 -17 59 -28 63 -25 21 13 27 -57 10 -114 -9 -31 -7 -46 14
-101 13 -36 35 -81 48 -101 13 -20 29 -44 34 -53 13 -22 90 -39 134 -31 58 11
100 43 120 92 15 36 9 83 -15 131 -33 67 -39 188 -12 232 14 21 -8 70 -65 145
-36 48 -61 69 -128 105 -108 58 -145 69 -254 76 -72 4 -96 1 -120 -12z m275
-64 c0 -5 -4 -10 -9 -10 -6 0 -13 5 -16 10 -3 6 1 10 9 10 9 0 16 -4 16 -10z
m-246 -219 c-2 -3 -9 0 -15 6 -6 6 -19 9 -28 6 -13 -4 -13 -3 -2 5 14 10 56
-6 45 -17z m186 -21 c0 -5 -5 -10 -11 -10 -5 0 -7 5 -4 10 3 6 8 10 11 10 2 0
4 -4 4 -10z m-842 -1185 c-3 -3 -9 2 -12 12 -6 14 -5 15 5 6 7 -7 10 -15 7
-18z m142 -9 c0 -2 -9 -2 -20 1 -11 3 -20 9 -20 15 0 5 9 4 20 -2 11 -6 20
-12 20 -14z"/>
</g>
</svg>
